# xmcd
#
# Track frame offsets:
#	150
#	14582
#	29540
#	44340
#	63707
#	82520
#	98407
#	118117
#	130275
#	150430
#	168605
#	180652
#
# Disc length: 2678 seconds
#
# Revision: 1
# Processed by: cddbd v1.5PL3 Copyright (c) Steve Scherf et al.
# Submitted via: EasyCDDAExtractor 7.0.5.4
#
DISCID=940a740c
DTITLE=Jean-Jacques Egli - Mes Coups De Coeur Country
DYEAR=2004
DGENRE=Country
TTITLE0=Le Train Qui Siffle
TTITLE1=Si On Pouvait Recommencer
TTITLE2=Dans Ma Belle Petite Maison Dans Ma Vallée
TTITLE3=Un Jour À La Fois
TTITLE4=Mille Après Mille
TTITLE5=Hello Centrale
TTITLE6=Aide-Moi À Passer La Nuit
TTITLE7=Lâche Pas La Patate (Potato Song)
TTITLE8=Quand On Est En Amour
TTITLE9=J'Entends Siffler Le Train
TTITLE10=La Chaîne De Nos Coeurs
TTITLE11=Mon Enfant Je Te Pardonne
EXTD=
EXTT0=
EXTT1=
EXTT2=
EXTT3=
EXTT4=
EXTT5=
EXTT6=
EXTT7=
EXTT8=
EXTT9=
EXTT10=
EXTT11=
PLAYORDER=
